<svg width="11" height="11" viewBox="0 0 11 11" fill="none" xmlns="http://www.w3.org/2000/svg">
<path d="M10.2143 8.06655C10.2143 8.19713 10.1901 8.36761 10.1417 8.57799C10.0934 8.78836 10.0426 8.95401 9.9894 9.07492C9.88784 9.31673 9.59282 9.57306 9.10435 9.84389C8.64974 10.0905 8.19996 10.2139 7.75502 10.2139C7.62444 10.2139 7.49628 10.2054 7.37054 10.1885C7.24479 10.1715 7.10575 10.1413 6.9534 10.0978C6.80106 10.0543 6.68741 10.0192 6.61244 9.99261C6.53748 9.96601 6.40327 9.91643 6.20982 9.84389C6.01637 9.77134 5.89788 9.72782 5.85435 9.71331C5.38039 9.54404 4.95722 9.34333 4.58482 9.11119C3.97061 8.72912 3.33222 8.2068 2.66964 7.54422C2.00707 6.88165 1.48475 6.24326 1.10268 5.62905C0.870536 5.25665 0.669829 4.83347 0.500558 4.35951C0.486049 4.31599 0.442522 4.1975 0.369978 4.00405C0.297433 3.81059 0.247861 3.67639 0.221261 3.60142C0.194661 3.52646 0.159598 3.41281 0.116071 3.26046C0.0725446 3.10812 0.0423177 2.96908 0.0253906 2.84333C0.00846354 2.71759 0 2.58943 0 2.45884C0 2.0139 0.123326 1.56413 0.369978 1.10951C0.640811 0.621047 0.897135 0.326032 1.13895 0.224469C1.25986 0.17127 1.4255 0.120489 1.63588 0.0721254C1.84626 0.0237627 2.01674 -0.000418663 2.14732 -0.000418663C2.21503 -0.000418663 2.26581 0.00683594 2.29967 0.0213442C2.38672 0.0503626 2.51488 0.234142 2.68415 0.572683C2.73735 0.664574 2.8099 0.795154 2.90179 0.964425C2.99368 1.1337 3.07831 1.28725 3.15569 1.42508C3.23307 1.56292 3.30804 1.69229 3.38058 1.8132C3.39509 1.83254 3.43741 1.893 3.50753 1.99456C3.57766 2.09612 3.62965 2.18197 3.6635 2.25209C3.69736 2.32222 3.71429 2.39114 3.71429 2.45884C3.71429 2.55557 3.64537 2.67648 3.50753 2.82157C3.3697 2.96666 3.21977 3.09966 3.05776 3.22056C2.89574 3.34147 2.74581 3.46963 2.60798 3.60505C2.47015 3.74047 2.40123 3.8517 2.40123 3.93876C2.40123 3.98228 2.41332 4.03669 2.4375 4.10198C2.46168 4.16727 2.48224 4.21684 2.49916 4.2507C2.51609 4.28455 2.54994 4.34259 2.60073 4.4248C2.65151 4.50702 2.67932 4.55297 2.68415 4.56264C3.05171 5.22521 3.47247 5.79348 3.94643 6.26744C4.42039 6.7414 4.98865 7.16216 5.65123 7.52972C5.6609 7.53455 5.70685 7.56236 5.78906 7.61314C5.87128 7.66392 5.92932 7.69778 5.96317 7.7147C5.99702 7.73163 6.0466 7.75219 6.11189 7.77637C6.17718 7.80055 6.23159 7.81264 6.27511 7.81264C6.36217 7.81264 6.4734 7.74372 6.60882 7.60589C6.74423 7.46805 6.8724 7.31813 6.9933 7.15611C7.11421 6.99409 7.24721 6.84417 7.3923 6.70633C7.53739 6.5685 7.6583 6.49958 7.75502 6.49958C7.82273 6.49958 7.89165 6.51651 7.96177 6.55036C8.0319 6.58422 8.11775 6.63621 8.21931 6.70633C8.32087 6.77646 8.38132 6.81878 8.40067 6.83329C8.52158 6.90583 8.65095 6.98079 8.78878 7.05818C8.92662 7.13556 9.08017 7.22019 9.24944 7.31208C9.41871 7.40397 9.54929 7.47652 9.64118 7.52972C9.97972 7.69899 10.1635 7.82715 10.1925 7.9142C10.207 7.94806 10.2143 7.99884 10.2143 8.06655Z" fill="white"/>
</svg>
